<svg xmlns="http://www.w3.org/2000/svg" width="1120" height="700" viewBox="0 0 1120 700" role="img" aria-labelledby="title desc">
  <title id="title">AO Foundry portfolio loop</title>
  <desc id="desc">Shows Blueprint and Atlas feeding Foundry, then Foundry coordinating registry, readiness, one-slice PR lifecycle, delegated Forge runs, CI evidence, and release handoff.</desc>
  <defs>
    <marker id="arrow" markerWidth="12" markerHeight="12" refX="10" refY="6" orient="auto">
      <path d="M2,2 L10,6 L2,10 Z" fill="#334155"/>
    </marker>
    <style>
      .title { font: 700 30px Arial, sans-serif; fill: #2c1c05; }
      .box { stroke-width: 2; rx: 10; }
      .repo { font: 700 17px Arial, sans-serif; fill: #111827; }
      .small { font: 400 13px Arial, sans-serif; fill: #475569; }
      .arrow { stroke: #334155; stroke-width: 2.3; fill: none; marker-end: url(#arrow); }
    </style>
  </defs>
  <rect width="1120" height="700" fill="#fffaf0"/>
  <text class="title" x="48" y="56">AO Foundry: active-stack portfolio loop</text>

  <rect class="box" x="58" y="120" width="190" height="82" fill="#fef3c7" stroke="#b7791f"/>
  <text class="repo" x="99" y="153">AO Blueprint</text>
  <text class="small" x="88" y="178">build authorization</text>

  <rect class="box" x="58" y="258" width="190" height="82" fill="#e0f2fe" stroke="#0369a1"/>
  <text class="repo" x="112" y="291">AO Atlas</text>
  <text class="small" x="84" y="316">workgraph/context packs</text>

  <rect class="box" x="398" y="260" width="292" height="120" fill="#fff1d6" stroke="#c9811d" stroke-width="3"/>
  <text class="repo" x="493" y="307">AO Foundry</text>
  <text class="small" x="426" y="334">registry, readiness, intake/start gates, PR lifecycle</text>

  <rect class="box" x="832" y="120" width="210" height="78" fill="#ffffff" stroke="#c9811d"/>
  <text class="repo" x="881" y="153">Repo registry</text>
  <text class="small" x="862" y="178">7 active repositories</text>

  <rect class="box" x="832" y="240" width="210" height="78" fill="#ffffff" stroke="#c9811d"/>
  <text class="repo" x="884" y="273">Readiness</text>
  <text class="small" x="858" y="298">evidence and CI runs</text>

  <rect class="box" x="832" y="360" width="210" height="78" fill="#e8ecff" stroke="#5967c9"/>
  <text class="repo" x="890" y="393">AO Forge</text>
  <text class="small" x="865" y="418">one governed factory run</text>

  <rect class="box" x="832" y="480" width="210" height="78" fill="#e7f6ee" stroke="#4d8d52"/>
  <text class="repo" x="871" y="513">Release handoff</text>
  <text class="small" x="865" y="538">manual promotion gate</text>

  <rect class="box" x="398" y="510" width="292" height="78" fill="#ffffff" stroke="#c9811d"/>
  <text class="repo" x="463" y="543">Stop condition</text>
  <text class="small" x="430" y="568">no blocking readiness tasks or open PRs</text>

  <path class="arrow" d="M248 161 C318 176 358 230 398 292"/>
  <path class="arrow" d="M248 299 L398 316"/>
  <path class="arrow" d="M690 300 C748 258 790 194 832 159"/>
  <path class="arrow" d="M690 320 L832 279"/>
  <path class="arrow" d="M690 340 L832 399"/>
  <path class="arrow" d="M937 438 L937 480"/>
  <path class="arrow" d="M832 519 C760 538 720 548 690 549"/>
  <path class="arrow" d="M398 549 C310 512 232 410 153 340"/>

  <text class="small" x="58" y="646">Foundry schedules and coordinates. It does not execute, approve policy, publish releases, call providers, or treat raw ideas as ready implementation work.</text>
</svg>
