<svg xmlns="http://www.w3.org/2000/svg" width="960" height="520" viewBox="0 0 960 520" role="img" aria-labelledby="title desc">
  <title id="title">AO Mission gateway authority map</title>
  <desc id="desc">Telegram, A2A, and codex-cron feed AO Mission readbacks without direct execution authority; A2A fixture-server readback, gateway readiness rollup, timeline compaction, and Mission archive validation remain provenance only; governed work continues through Blueprint, Atlas, Foundry, Forge/AO2, Covenant, Sentinel, Promoter, and Command.</desc>
  <defs>
    <style>
      text { font-family: Arial, sans-serif; fill: #172033; }
      .box { fill: #f8fafc; stroke: #334155; stroke-width: 2; rx: 6; }
      .input { fill: #eef6ff; stroke: #2563eb; }
      .gate { fill: #fff7ed; stroke: #c2410c; }
      .read { fill: #ecfdf5; stroke: #047857; }
      .deny { fill: #fef2f2; stroke: #b91c1c; }
      .label { font-size: 17px; font-weight: 700; }
      .small { font-size: 13px; }
      .arrow { stroke: #334155; stroke-width: 2; marker-end: url(#arrow); fill: none; }
      .stop { stroke: #b91c1c; stroke-width: 2; stroke-dasharray: 6 5; fill: none; }
    </style>
    <marker id="arrow" markerWidth="12" markerHeight="12" refX="10" refY="6" orient="auto">
      <path d="M2,2 L10,6 L2,10 Z" fill="#334155"/>
    </marker>
  </defs>

  <rect x="30" y="34" width="170" height="78" class="box input"/>
  <text x="115" y="65" text-anchor="middle" class="label">Telegram</text>
  <text x="115" y="88" text-anchor="middle" class="small">intent/readback only</text>

  <rect x="30" y="138" width="170" height="78" class="box input"/>
  <text x="115" y="169" text-anchor="middle" class="label">A2A</text>
  <text x="115" y="192" text-anchor="middle" class="small">fixture server readback</text>

  <rect x="30" y="242" width="170" height="78" class="box input"/>
  <text x="115" y="273" text-anchor="middle" class="label">codex-cron</text>
  <text x="115" y="296" text-anchor="middle" class="small">scheduler wakeup only</text>

  <rect x="280" y="116" width="180" height="126" class="box read"/>
  <text x="370" y="151" text-anchor="middle" class="label">AO Mission</text>
  <text x="370" y="176" text-anchor="middle" class="small">mission record</text>
  <text x="370" y="196" text-anchor="middle" class="small">route decision</text>
  <text x="370" y="216" text-anchor="middle" class="small">gateway readiness rollup</text>
  <text x="370" y="236" text-anchor="middle" class="small">timeline compaction</text>

  <rect x="280" y="264" width="180" height="62" class="box read"/>
  <text x="370" y="290" text-anchor="middle" class="label">Archive</text>
  <text x="370" y="311" text-anchor="middle" class="small">digest-bound provenance</text>

  <rect x="530" y="46" width="156" height="72" class="box gate"/>
  <text x="608" y="77" text-anchor="middle" class="label">Blueprint</text>
  <text x="608" y="99" text-anchor="middle" class="small">authorization</text>

  <rect x="530" y="144" width="156" height="72" class="box gate"/>
  <text x="608" y="175" text-anchor="middle" class="label">Atlas</text>
  <text x="608" y="197" text-anchor="middle" class="small">workgraph compiler</text>

  <rect x="530" y="242" width="156" height="72" class="box gate"/>
  <text x="608" y="273" text-anchor="middle" class="label">Foundry</text>
  <text x="608" y="295" text-anchor="middle" class="small">implementation gates</text>

  <rect x="744" y="94" width="166" height="72" class="box gate"/>
  <text x="827" y="125" text-anchor="middle" class="label">Forge / AO2</text>
  <text x="827" y="147" text-anchor="middle" class="small">bounded execution</text>

  <rect x="744" y="190" width="166" height="72" class="box gate"/>
  <text x="827" y="221" text-anchor="middle" class="label">Covenant</text>
  <text x="827" y="243" text-anchor="middle" class="small">authority denial/allow</text>

  <rect x="744" y="286" width="166" height="72" class="box gate"/>
  <text x="827" y="317" text-anchor="middle" class="label">Sentinel</text>
  <text x="827" y="339" text-anchor="middle" class="small">public-risk guard</text>

  <rect x="744" y="382" width="166" height="72" class="box read"/>
  <text x="827" y="413" text-anchor="middle" class="label">Command</text>
  <text x="827" y="435" text-anchor="middle" class="small">compact timeline readback</text>

  <rect x="278" y="350" width="260" height="94" class="box deny"/>
  <text x="408" y="382" text-anchor="middle" class="label">Denied At Gateway</text>
  <text x="408" y="407" text-anchor="middle" class="small">execution, approval, provider calls</text>
  <text x="408" y="427" text-anchor="middle" class="small">release, credentials, direct mutation</text>

  <path d="M200 73 C230 73 250 134 280 150" class="arrow"/>
  <path d="M200 177 H280" class="arrow"/>
  <path d="M200 281 C235 281 250 221 280 205" class="arrow"/>
  <path d="M370 242 V264" class="arrow"/>
  <path d="M460 295 C498 292 502 224 530 196" class="arrow"/>
  <path d="M460 306 C498 318 502 300 530 286" class="arrow"/>
  <path d="M460 160 C500 128 500 94 530 82" class="arrow"/>
  <path d="M460 180 H530" class="arrow"/>
  <path d="M460 205 C502 225 502 264 530 278" class="arrow"/>
  <path d="M686 278 C710 244 720 154 744 130" class="arrow"/>
  <path d="M686 278 C716 266 720 238 744 226" class="arrow"/>
  <path d="M686 278 H744" class="arrow"/>
  <path d="M686 298 C716 322 720 404 744 418" class="arrow"/>
  <path d="M200 73 C260 90 240 340 278 380" class="stop"/>
  <path d="M200 177 C255 190 242 356 278 397" class="stop"/>
  <path d="M200 281 C246 294 246 384 278 414" class="stop"/>
</svg>
