<svg xmlns="http://www.w3.org/2000/svg" width="1280" height="720" viewBox="0 0 1280 720" role="img" aria-labelledby="title desc">
  <title id="title">AO Mission pipeline</title>
  <desc id="desc">AO Mission accepts operator and gateway intent, emits route-decision and governance readback, then routes through Blueprint, Atlas, Foundry, Forge, AO2, assurance gates, and read-only Command status.</desc>

  <defs>
    <marker id="arrow" markerWidth="12" markerHeight="12" refX="10" refY="6" orient="auto">
      <path d="M2,2 L10,6 L2,10 Z" fill="#334155"/>
    </marker>
    <style>
      .bg { fill: #f6f8fb; }
      .title { font: 700 34px Inter, Arial, sans-serif; fill: #162033; }
      .subtitle { font: 400 16px Inter, Arial, sans-serif; fill: #526070; }
      .band { rx: 8; }
      .bandText { font: 700 14px Inter, Arial, sans-serif; fill: #ffffff; letter-spacing: 0; }
      .card { stroke-width: 2; rx: 8; }
      .note { stroke-width: 1.6; rx: 8; }
      .cardTitle { font: 700 18px Inter, Arial, sans-serif; fill: #162033; }
      .body { font: 500 15px Inter, Arial, sans-serif; fill: #162033; }
      .small { font: 400 13px Inter, Arial, sans-serif; fill: #3a4758; }
      .smallStrong { font: 700 13px Inter, Arial, sans-serif; fill: #253244; }
      .label { font: 700 11px Inter, Arial, sans-serif; fill: #263447; }
      .chip { fill: #ffffff; stroke: #cbd5e1; stroke-width: 1; rx: 7; }
      .arrow { stroke: #334155; stroke-width: 2.2; fill: none; marker-end: url(#arrow); }
      .dash { stroke: #64748b; stroke-width: 2; stroke-dasharray: 7 7; fill: none; marker-end: url(#arrow); }
      .soft { stroke: #94a3b8; stroke-width: 1.7; fill: none; marker-end: url(#arrow); }
      .cell { stroke: #cbd5e1; stroke-width: 1.4; }
      .cellHead { font: 700 14px Inter, Arial, sans-serif; fill: #162033; }
      .cellText { font: 400 12px Inter, Arial, sans-serif; fill: #39485a; }
    </style>
  </defs>
  <rect class="bg" width="1280" height="720"/>
  <text class="title" x="48" y="58">AO Mission pipeline</text>
  <text class="subtitle" x="48" y="88">Intent and readback stay separate from execution authority.</text>
  <rect class="band" x="48" y="120" width="1184" height="36" fill="#172033"/>
  <text class="bandText" x="66" y="144">Mission-led route and governance path</text>
  <rect class="card" x="64" y="178" width="168" height="132" fill="#e1f5ef" stroke="#64748b"/>
  <text class="cardTitle" x="82" y="209"><tspan x="82" dy="0">User and</tspan><tspan x="82" dy="19">gateways</tspan></text>
  <text class="small" x="82" y="258">CLI, Telegram, A2A</text>
  <text class="small" x="82" y="278"><tspan x="82" dy="0">Intent/readback</tspan><tspan x="82" dy="16">only</tspan></text>
  <rect class="card" x="262" y="178" width="168" height="132" fill="#e1f5ef" stroke="#64748b"/>
  <text class="cardTitle" x="280" y="209">AO Mission</text>
  <text class="small" x="280" y="236">Mission record</text>
  <text class="small" x="280" y="256">Route decision</text>
  <text class="small" x="280" y="276"><tspan x="280" dy="0">Governance</tspan><tspan x="280" dy="16">snapshot</tspan></text>
  <path class="arrow" d="M232 244 L262 244"/>
  <rect class="card" x="460" y="178" width="168" height="132" fill="#fff2cf" stroke="#64748b"/>
  <text class="cardTitle" x="478" y="209">Blueprint</text>
  <text class="small" x="478" y="236">Requirements</text>
  <text class="small" x="478" y="256"><tspan x="478" dy="0">Build</tspan><tspan x="478" dy="16">authorization</tspan></text>
  <path class="arrow" d="M430 244 L460 244"/>
  <rect class="card" x="658" y="178" width="168" height="132" fill="#e4f1ff" stroke="#64748b"/>
  <text class="cardTitle" x="676" y="209">Atlas</text>
  <text class="small" x="676" y="236">Workgraph metadata</text>
  <text class="small" x="676" y="256">Context packs</text>
  <path class="arrow" d="M628 244 L658 244"/>
  <rect class="card" x="856" y="178" width="168" height="132" fill="#ffe9d2" stroke="#64748b"/>
  <text class="cardTitle" x="874" y="209">Foundry</text>
  <text class="small" x="874" y="236">PR lifecycle</text>
  <text class="small" x="874" y="256"><tspan x="874" dy="0">Smoke and</tspan><tspan x="874" dy="16">readiness ledger</tspan></text>
  <path class="arrow" d="M826 244 L856 244"/>
  <rect class="card" x="1054" y="178" width="168" height="132" fill="#eee8ff" stroke="#64748b"/>
  <text class="cardTitle" x="1072" y="209">Forge / AO2</text>
  <text class="small" x="1072" y="236">Bounded runs</text>
  <text class="small" x="1072" y="256">Policy packet</text>
  <text class="small" x="1072" y="276">Evidence export</text>
  <path class="arrow" d="M1024 244 L1054 244"/>
  <rect class="band" x="48" y="378" width="1184" height="36" fill="#172033"/>
  <text class="bandText" x="66" y="402">Readback, gates, and denied authority</text>
  <rect class="card" x="92" y="456" width="260" height="128" fill="#ffe7ec" stroke="#64748b"/>
  <text class="cardTitle" x="110" y="487">Assurance gates</text>
  <text class="small" x="110" y="514">Covenant policy</text>
  <text class="small" x="110" y="534">Arena, Crucible, Sentinel</text>
  <text class="small" x="110" y="554">Promoter dry-run activation</text>
  <rect class="card" x="510" y="456" width="260" height="128" fill="#e1f5ef" stroke="#64748b"/>
  <text class="cardTitle" x="528" y="487">AO Command</text>
  <text class="small" x="528" y="514">Read-only status</text>
  <text class="small" x="528" y="534">Next action display</text>
  <text class="small" x="528" y="554">No scheduling or mutation</text>
  <rect class="card" x="888" y="456" width="260" height="128" fill="#e8edf3" stroke="#64748b"/>
  <text class="cardTitle" x="906" y="487"><tspan x="906" dy="0">Denied authority remains</tspan><tspan x="906" dy="19">denied</tspan></text>
  <text class="small" x="906" y="536">No direct main</text>
  <text class="small" x="906" y="556">No credentials or deploy</text>
  <text class="small" x="906" y="576">No hidden mutation</text>
  <path class="dash" d="M1058 310 C1058 372 222 388 222 456"/>
  <rect class="chip" x="762" y="358" width="107" height="23"/>
  <text class="label" x="770" y="375">gate evidence</text>
  <path class="dash" d="M352 520 L510 520"/>
  <rect class="chip" x="377" y="488" width="142" height="23"/>
  <text class="label" x="385" y="505">validated readback</text>
  <path class="dash" d="M770 520 L888 520"/>
  <rect class="chip" x="787" y="488" width="121" height="23"/>
  <text class="label" x="795" y="505">denials visible</text>
</svg>
