<svg xmlns="http://www.w3.org/2000/svg" width="1600" height="1080" viewBox="0 0 1600 1080" role="img" aria-labelledby="title desc">
  <title id="title">AO agent orchestration stack</title>
  <desc id="desc">Current AO architecture with Mission intake, Blueprint authorization, Atlas workgraph compilation, Foundry scheduling, Forge planning, Covenant gates, AO2 execution, read-only observers, and assurance gates.</desc>

  <defs>
    <marker id="arrow" markerWidth="12" markerHeight="12" refX="10" refY="6" orient="auto">
      <path d="M2,2 L10,6 L2,10 Z" fill="#334155"/>
    </marker>
    <style>
      .bg { fill: #f6f8fb; }
      .title { font: 700 34px Inter, Arial, sans-serif; fill: #162033; }
      .subtitle { font: 400 16px Inter, Arial, sans-serif; fill: #526070; }
      .band { rx: 8; }
      .bandText { font: 700 14px Inter, Arial, sans-serif; fill: #ffffff; letter-spacing: 0; }
      .card { stroke-width: 2; rx: 8; }
      .note { stroke-width: 1.6; rx: 8; }
      .cardTitle { font: 700 18px Inter, Arial, sans-serif; fill: #162033; }
      .body { font: 500 15px Inter, Arial, sans-serif; fill: #162033; }
      .small { font: 400 13px Inter, Arial, sans-serif; fill: #3a4758; }
      .smallStrong { font: 700 13px Inter, Arial, sans-serif; fill: #253244; }
      .label { font: 700 11px Inter, Arial, sans-serif; fill: #263447; }
      .chip { fill: #ffffff; stroke: #cbd5e1; stroke-width: 1; rx: 7; }
      .arrow { stroke: #334155; stroke-width: 2.2; fill: none; marker-end: url(#arrow); }
      .dash { stroke: #64748b; stroke-width: 2; stroke-dasharray: 7 7; fill: none; marker-end: url(#arrow); }
      .soft { stroke: #94a3b8; stroke-width: 1.7; fill: none; marker-end: url(#arrow); }
      .cell { stroke: #cbd5e1; stroke-width: 1.4; }
      .cellHead { font: 700 14px Inter, Arial, sans-serif; fill: #162033; }
      .cellText { font: 400 12px Inter, Arial, sans-serif; fill: #39485a; }
    </style>
  </defs>
  <rect class="bg" width="1600" height="1080"/>
  <text class="title" x="48" y="58">AO agent orchestration stack</text>
  <text class="subtitle" x="48" y="88"><tspan x="48" dy="0">Mission records intent; Blueprint and Atlas shape work; Foundry, Forge, Covenant, and AO2 run governed work; Command and control-</tspan><tspan x="48" dy="19">plane only read back evidence.</tspan></text>
  <rect class="band" x="48" y="124" width="1504" height="36" fill="#172033"/>
  <text class="bandText" x="66" y="148">Repository authority map</text>
  <rect class="card" x="64" y="190" width="280" height="150" fill="#e1f5ef" stroke="#64748b"/>
  <text class="cardTitle" x="82" y="221">AO Mission</text>
  <text class="small" x="82" y="248">User entry, route decision</text>
  <text class="small" x="82" y="268">Gateway and recovery readbacks</text>
  <text class="small" x="82" y="288">No execution or approval</text>
  <rect class="card" x="414" y="190" width="280" height="150" fill="#fff2cf" stroke="#64748b"/>
  <text class="cardTitle" x="432" y="221">AO Blueprint</text>
  <text class="small" x="432" y="248">Requirements interview</text>
  <text class="small" x="432" y="268">Blueprint pack</text>
  <text class="small" x="432" y="288">Build authorization</text>
  <rect class="card" x="764" y="190" width="280" height="150" fill="#e4f1ff" stroke="#64748b"/>
  <text class="cardTitle" x="782" y="221">AO Atlas</text>
  <text class="small" x="782" y="248">Stack-instance compiler</text>
  <text class="small" x="782" y="268">Workgraphs and context packs</text>
  <text class="small" x="782" y="288">Foundry import material</text>
  <rect class="card" x="1114" y="190" width="280" height="150" fill="#ffe9d2" stroke="#64748b"/>
  <text class="cardTitle" x="1132" y="221">AO Foundry</text>
  <text class="small" x="1132" y="248">Portfolio scheduler</text>
  <text class="small" x="1132" y="268">Readiness and PR lifecycle</text>
  <text class="small" x="1132" y="288">One ready node at a time</text>
  <rect class="card" x="414" y="445" width="280" height="150" fill="#eee8ff" stroke="#64748b"/>
  <text class="cardTitle" x="432" y="476">AO Forge</text>
  <text class="small" x="432" y="503">One governed GoalRun</text>
  <text class="small" x="432" y="523">Factory plan and packets</text>
  <text class="small" x="432" y="543">Retained evidence</text>
  <rect class="card" x="764" y="445" width="280" height="150" fill="#fff2cf" stroke="#64748b"/>
  <text class="cardTitle" x="782" y="476">AO Covenant</text>
  <text class="small" x="782" y="503">Policy and trust kernel</text>
  <text class="small" x="782" y="523">Approval tickets</text>
  <text class="small" x="782" y="543">Claim vocabulary</text>
  <rect class="card" x="1114" y="445" width="280" height="150" fill="#e4f1ff" stroke="#64748b"/>
  <text class="cardTitle" x="1132" y="476">AO2</text>
  <text class="small" x="1132" y="503">Bounded local execution</text>
  <text class="small" x="1132" y="523">Adapters and artifacts</text>
  <text class="small" x="1132" y="543">Evaluator closure</text>
  <rect class="card" x="414" y="700" width="280" height="150" fill="#e9f7df" stroke="#64748b"/>
  <text class="cardTitle" x="432" y="731">ao2-control-plane</text>
  <text class="small" x="432" y="758">Read-only observer</text>
  <text class="small" x="432" y="778">Signed ingest</text>
  <text class="small" x="432" y="798">Dashboards and APIs</text>
  <rect class="card" x="764" y="700" width="280" height="150" fill="#e1f5ef" stroke="#64748b"/>
  <text class="cardTitle" x="782" y="731">AO Command</text>
  <text class="small" x="782" y="758">Read-only operator view</text>
  <text class="small" x="782" y="778">Status and next actions</text>
  <text class="small" x="782" y="798">Validation without mutation</text>
  <rect class="card" x="1114" y="700" width="280" height="150" fill="#ffe7ec" stroke="#64748b"/>
  <text class="cardTitle" x="1132" y="731">Assurance gates</text>
  <text class="small" x="1132" y="758">Arena scores</text>
  <text class="small" x="1132" y="778">Crucible probes</text>
  <text class="small" x="1132" y="798">Sentinel holds, Promoter dry-runs</text>
  <path class="arrow" d="M344 265 L406 265"/>
  <path class="arrow" d="M694 265 L756 265"/>
  <path class="arrow" d="M1044 265 L1106 265"/>
  <path class="arrow" d="M1254 340 C1254 398 574 390 554 437"/>
  <path class="arrow" d="M694 520 L756 520"/>
  <path class="arrow" d="M1044 520 L1106 520"/>
  <path class="dash" d="M1254 595 C1254 656 574 646 554 692"/>
  <path class="dash" d="M694 775 L756 775"/>
  <path class="dash" d="M1044 775 L1106 775"/>
  <rect class="note" x="64" y="930" width="1392" height="82" fill="#e8edf3" stroke="#94a3b8"/>
  <text class="smallStrong" x="82" y="959"><tspan x="82" dy="0">Invariant: Atlas does not schedule, execute, approve, publish, call providers, or mutate sibling repositories. Command and control-plane report evidence only; they do not approve or execute</tspan><tspan x="82" dy="18">work.</tspan></text>
</svg>
