<svg xmlns="http://www.w3.org/2000/svg" width="1280" height="760" viewBox="0 0 1280 760" role="img" aria-labelledby="title desc">
  <title id="title">AO stack repository interaction overview</title>
  <desc id="desc">Shows AO Command, AO Foundry, AO Forge, AO Covenant, AO2, ao2-control-plane, AO Arena, AO Crucible, AO Sentinel, and AO Promoter with their responsibilities and evidence flow.</desc>
  <defs>
    <marker id="arrow" markerWidth="12" markerHeight="12" refX="10" refY="6" orient="auto">
      <path d="M2,2 L10,6 L2,10 Z" fill="#2f3a4a"/>
    </marker>
    <style>
      .bg { fill: #f7f8fb; }
      .title { font: 700 34px Arial, sans-serif; fill: #18202f; }
      .subtitle { font: 400 18px Arial, sans-serif; fill: #4b5567; }
      .box { stroke-width: 2; rx: 14; }
      .repo { font: 700 21px Arial, sans-serif; fill: #101828; }
      .role { font: 400 15px Arial, sans-serif; fill: #263445; }
      .small { font: 400 13px Arial, sans-serif; fill: #425066; }
      .arrow { stroke: #2f3a4a; stroke-width: 2.5; marker-end: url(#arrow); fill: none; }
      .label { font: 700 13px Arial, sans-serif; fill: #223047; }
    </style>
  </defs>
  <rect class="bg" width="1280" height="760"/>
  <text class="title" x="64" y="62">AO agent orchestration stack</text>
  <text class="subtitle" x="64" y="92">Authority is split across repositories so planning, approval, execution, evidence storage, and operator UX stay auditable.</text>

  <rect class="box" x="70" y="150" width="250" height="128" fill="#dff4f0" stroke="#1b7f79"/>
  <text class="repo" x="100" y="190">AO Command</text>
  <text class="role" x="100" y="218">Read-only operator surface</text>
  <text class="small" x="100" y="246">Status, next actions, evidence</text>

  <rect class="box" x="505" y="132" width="270" height="146" fill="#fff1d6" stroke="#c9811d"/>
  <text class="repo" x="545" y="174">AO Foundry</text>
  <text class="role" x="545" y="202">Portfolio operations factory</text>
  <text class="small" x="545" y="230">Readiness ledgers, exit gates, release trains</text>

  <rect class="box" x="505" y="356" width="270" height="146" fill="#e8ecff" stroke="#5967c9"/>
  <text class="repo" x="560" y="398">AO Forge</text>
  <text class="role" x="548" y="426">Trusted factory brain</text>
  <text class="small" x="548" y="454">GoalRun, plans, gates, operator packets</text>

  <rect class="box" x="895" y="250" width="270" height="132" fill="#f2e8ff" stroke="#8557c5"/>
  <text class="repo" x="940" y="292">AO Covenant</text>
  <text class="role" x="930" y="320">Policy and trust kernel</text>
  <text class="small" x="930" y="348">Contracts, approvals, side-effect gates</text>

  <rect class="box" x="505" y="586" width="270" height="126" fill="#e1f0ff" stroke="#2678bd"/>
  <text class="repo" x="610" y="625">AO2</text>
  <text class="role" x="548" y="653">Governed execution engine</text>
  <text class="small" x="548" y="681">Adapters, policies, evidence packs, closure</text>

  <rect class="box" x="895" y="566" width="270" height="126" fill="#e8f7df" stroke="#5a923c"/>
  <text class="repo" x="924" y="605">ao2-control-plane</text>
  <text class="role" x="930" y="633">Read-only evidence observer</text>
  <text class="small" x="930" y="661">Signed ingest, storage, dashboards, readback</text>

  <path class="arrow" d="M320 214 C392 180 432 174 505 190"/>
  <text class="label" x="348" y="172">portfolio status</text>
  <path class="arrow" d="M320 248 C410 330 430 386 505 424"/>
  <text class="label" x="340" y="356">factory status</text>
  <path class="arrow" d="M640 278 L640 356"/>
  <text class="label" x="656" y="320">delegated run</text>
  <path class="arrow" d="M775 428 C828 390 850 354 895 322"/>
  <text class="label" x="795" y="365">policy gate</text>
  <path class="arrow" d="M640 502 L640 586"/>
  <text class="label" x="656" y="550">execute</text>
  <path class="arrow" d="M775 650 L895 632"/>
  <text class="label" x="792" y="625">publish evidence</text>
  <path class="arrow" d="M895 590 C820 548 804 500 775 456"/>
  <text class="label" x="790" y="548">readback</text>
  <path class="arrow" d="M895 300 C820 248 790 214 775 206"/>
  <text class="label" x="785" y="244">release trust</text>

  <text class="small" x="70" y="726">Practical rule: Command shows, Foundry coordinates, Forge decides, Covenant gates, AO2 executes, control-plane observes, Arena scores, Crucible hardens, Sentinel monitors, Promoter activates.</text>
</svg>
