<svg xmlns="http://www.w3.org/2000/svg" width="1480" height="1120" viewBox="0 0 1480 1120" role="img" aria-labelledby="title desc">
  <title id="title">Authority boundaries keep AO auditable</title>
  <desc id="desc">Repository ownership table for the operator lifecycle, requirements, workgraph compilation, portfolio coordination, per-run orchestration, policy, execution, observation, presentation, and assurance components.</desc>

  <defs>
    <marker id="arrow" markerWidth="12" markerHeight="12" refX="10" refY="6" orient="auto">
      <path d="M2,2 L10,6 L2,10 Z" fill="#334155"/>
    </marker>
    <style>
      .bg { fill: #f6f8fb; }
      .title { font: 700 34px Inter, Arial, sans-serif; fill: #162033; }
      .subtitle { font: 400 16px Inter, Arial, sans-serif; fill: #526070; }
      .band { rx: 8; }
      .bandText { font: 700 14px Inter, Arial, sans-serif; fill: #ffffff; letter-spacing: 0; }
      .card { stroke-width: 2; rx: 8; }
      .note { stroke-width: 1.6; rx: 8; }
      .cardTitle { font: 700 18px Inter, Arial, sans-serif; fill: #162033; }
      .body { font: 500 15px Inter, Arial, sans-serif; fill: #162033; }
      .small { font: 400 13px Inter, Arial, sans-serif; fill: #3a4758; }
      .smallStrong { font: 700 13px Inter, Arial, sans-serif; fill: #253244; }
      .label { font: 700 11px Inter, Arial, sans-serif; fill: #263447; }
      .chip { fill: #ffffff; stroke: #cbd5e1; stroke-width: 1; rx: 7; }
      .arrow { stroke: #334155; stroke-width: 2.2; fill: none; marker-end: url(#arrow); }
      .dash { stroke: #64748b; stroke-width: 2; stroke-dasharray: 7 7; fill: none; marker-end: url(#arrow); }
      .soft { stroke: #94a3b8; stroke-width: 1.7; fill: none; marker-end: url(#arrow); }
      .cell { stroke: #cbd5e1; stroke-width: 1.4; }
      .cellHead { font: 700 14px Inter, Arial, sans-serif; fill: #162033; }
      .cellText { font: 400 12px Inter, Arial, sans-serif; fill: #39485a; }
    </style>
  </defs>
  <rect class="bg" width="1480" height="1120"/>
  <text class="title" x="48" y="58">Authority boundaries keep AO auditable</text>
  <text class="subtitle" x="48" y="88">Each component owns one decision surface; no component writes its own permission slip.</text>
  <rect class="cell" x="48" y="130" width="1385" height="42" fill="#172033"/>
  <text class="bandText" x="62" y="157">Component</text>
  <text class="bandText" x="267" y="157">Owns</text>
  <text class="bandText" x="822" y="157">Does not own</text>
  <rect class="cell" x="48" y="172" width="205" height="82" fill="#ffffff"/>
  <text class="cellHead" x="62" y="199">AO Mission</text>
  <rect class="cell" x="253" y="172" width="555" height="82" fill="#ffffff"/>
  <text class="cellText" x="267" y="199">Mission state, routing, continuation, recovery, operator lifecycle metrics</text>
  <rect class="cell" x="808" y="172" width="625" height="82" fill="#ffffff"/>
  <text class="cellText" x="822" y="199">Requirements authorization, work execution, policy approval, provider calls</text>
  <rect class="cell" x="48" y="254" width="205" height="82" fill="#e8edf3"/>
  <text class="cellHead" x="62" y="281">AO Blueprint</text>
  <rect class="cell" x="253" y="254" width="555" height="82" fill="#e8edf3"/>
  <text class="cellText" x="267" y="281">Requirements clarification and bounded build authorization</text>
  <rect class="cell" x="808" y="254" width="625" height="82" fill="#e8edf3"/>
  <text class="cellText" x="822" y="281">Portfolio scheduling, execution, policy decisions, self-approval</text>
  <rect class="cell" x="48" y="336" width="205" height="82" fill="#ffffff"/>
  <text class="cellHead" x="62" y="363">AO Atlas</text>
  <rect class="cell" x="253" y="336" width="555" height="82" fill="#ffffff"/>
  <text class="cellText" x="267" y="363">Workgraph and context-pack compilation when required</text>
  <rect class="cell" x="808" y="336" width="625" height="82" fill="#ffffff"/>
  <text class="cellText" x="822" y="363">Scheduling, execution, approvals, publication, sibling mutation</text>
  <rect class="cell" x="48" y="418" width="205" height="82" fill="#e8edf3"/>
  <text class="cellHead" x="62" y="445">AO Foundry</text>
  <rect class="cell" x="253" y="418" width="555" height="82" fill="#e8edf3"/>
  <text class="cellText" x="267" y="445">Portfolio coordination and safe-next-work selection</text>
  <rect class="cell" x="808" y="418" width="625" height="82" fill="#e8edf3"/>
  <text class="cellText" x="822" y="445">Per-run execution, policy approval, activation</text>
  <rect class="cell" x="48" y="500" width="205" height="82" fill="#ffffff"/>
  <text class="cellHead" x="62" y="527">AO Forge</text>
  <rect class="cell" x="253" y="500" width="555" height="82" fill="#ffffff"/>
  <text class="cellText" x="267" y="527">Per-GoalRun orchestration, plans, delegation, retained run evidence</text>
  <rect class="cell" x="808" y="500" width="625" height="82" fill="#ffffff"/>
  <text class="cellText" x="822" y="527">Provider execution, policy authority, observer storage</text>
  <rect class="cell" x="48" y="582" width="205" height="82" fill="#e8edf3"/>
  <text class="cellHead" x="62" y="609">AO Covenant</text>
  <rect class="cell" x="253" y="582" width="555" height="82" fill="#e8edf3"/>
  <text class="cellText" x="267" y="609">Contracts, policy, approvals, trust, revocation</text>
  <rect class="cell" x="808" y="582" width="625" height="82" fill="#e8edf3"/>
  <text class="cellText" x="822" y="609">Portfolio scheduling, execution, operator presentation</text>
  <rect class="cell" x="48" y="664" width="205" height="82" fill="#ffffff"/>
  <text class="cellHead" x="62" y="691">AO2</text>
  <rect class="cell" x="253" y="664" width="555" height="82" fill="#ffffff"/>
  <text class="cellText" x="267" y="691">Governed execution, adapters, exact-scope receipts, rollback evidence</text>
  <rect class="cell" x="808" y="664" width="625" height="82" fill="#ffffff"/>
  <text class="cellText" x="822" y="691">Cross-repository scheduling, policy ownership, observer storage</text>
  <rect class="cell" x="48" y="746" width="205" height="82" fill="#e8edf3"/>
  <text class="cellHead" x="62" y="773">AO2 Control Plane</text>
  <rect class="cell" x="253" y="746" width="555" height="82" fill="#e8edf3"/>
  <text class="cellText" x="267" y="773">Observer-only evidence storage, indexing, and read APIs</text>
  <rect class="cell" x="808" y="746" width="625" height="82" fill="#e8edf3"/>
  <text class="cellText" x="822" y="773">Approving or executing work, deciding candidate acceptance</text>
  <rect class="cell" x="48" y="828" width="205" height="82" fill="#ffffff"/>
  <text class="cellHead" x="62" y="855">AO Command</text>
  <rect class="cell" x="253" y="828" width="555" height="82" fill="#ffffff"/>
  <text class="cellText" x="267" y="855">Read-only operator presentation of status, evidence, and next actions</text>
  <rect class="cell" x="808" y="828" width="625" height="82" fill="#ffffff"/>
  <text class="cellText" x="822" y="855">Scheduling, policy replacement, execution, repository mutation</text>
  <rect class="cell" x="48" y="910" width="205" height="82" fill="#e8edf3"/>
  <text class="cellHead" x="62" y="937">AO Assurance</text>
  <rect class="cell" x="253" y="910" width="555" height="82" fill="#e8edf3"/>
  <text class="cellText" x="267" y="937"><tspan x="267" dy="0">Arena comparisons, Crucible probes, Sentinel holds</tspan><tspan x="267" dy="16">Promoter decisions and plan previews</tspan></text>
  <rect class="cell" x="808" y="910" width="625" height="82" fill="#e8edf3"/>
  <text class="cellText" x="822" y="937">Overriding Covenant, bypassing AO2, executing activation</text>
  <rect class="note" x="48" y="1018" width="1385" height="52" fill="#e8edf3" stroke="#94a3b8"/>
  <text class="smallStrong" x="66" y="1047">Direct bounded work may route from Blueprint to Foundry; Atlas remains the compiler for workgraph and context-heavy missions.</text>
</svg>
