<svg xmlns="http://www.w3.org/2000/svg" width="1280" height="820" viewBox="0 0 1280 820" role="img" aria-labelledby="title desc">
  <title id="title">AO authority boundaries</title>
  <desc id="desc">Matrix of what AO Blueprint, AO Atlas, AO Foundry, AO Forge, AO Covenant, AO2, control-plane, AO Command, and assurance repositories own and must not own.</desc>
  <defs>
    <style>
      .bg { fill: #f8fafc; }
      .title { font: 700 32px Arial, sans-serif; fill: #111827; }
      .header { fill: #1f2937; }
      .headtext { font: 700 15px Arial, sans-serif; fill: #ffffff; }
      .cell { fill: #ffffff; stroke: #cbd5e1; stroke-width: 1.4; }
      .repo { font: 700 15px Arial, sans-serif; fill: #111827; }
      .text { font: 400 12px Arial, sans-serif; fill: #334155; }
      .own { fill: #e7f6ee; }
      .no { fill: #fff0f0; }
    </style>
  </defs>
  <rect class="bg" width="1280" height="820"/>
  <text class="title" x="48" y="54">Authority boundaries keep the factory auditable</text>
  <rect class="header" x="48" y="88" width="1184" height="44" rx="8"/>
  <text class="headtext" x="72" y="116">Repository</text>
  <text class="headtext" x="260" y="116">Owns</text>
  <text class="headtext" x="760" y="116">Must not own</text>

  <g transform="translate(48,132)">
    <rect class="cell" x="0" y="0" width="1184" height="66"/>
    <rect class="cell own" x="185" y="0" width="500" height="66"/>
    <rect class="cell no" x="685" y="0" width="499" height="66"/>
    <text class="repo" x="24" y="38">AO Blueprint</text>
    <text class="text" x="210" y="28">Requirements interview, blueprint pack, sufficiency audit, build authorization</text>
    <text class="text" x="710" y="28">Scheduling, execution, policy approval, provider calls, self-approving self-change</text>

    <rect class="cell" x="0" y="66" width="1184" height="66"/>
    <rect class="cell own" x="185" y="66" width="500" height="66"/>
    <rect class="cell no" x="685" y="66" width="499" height="66"/>
    <text class="repo" x="24" y="104">AO Atlas</text>
    <text class="text" x="210" y="94">Stack instances, workgraphs, context packs, Foundry handoff, run-link readback</text>
    <text class="text" x="710" y="94">Scheduling, execution, approval, publication, providers, sibling repo mutation</text>

    <rect class="cell" x="0" y="132" width="1184" height="66"/>
    <rect class="cell own" x="185" y="132" width="500" height="66"/>
    <rect class="cell no" x="685" y="132" width="499" height="66"/>
    <text class="repo" x="24" y="170">AO Foundry</text>
    <text class="text" x="210" y="160">Portfolio queue, active-stack readiness, release trains, one-slice PR lifecycle</text>
    <text class="text" x="710" y="160">Individual governed execution or side-effect approval</text>

    <rect class="cell" x="0" y="198" width="1184" height="66"/>
    <rect class="cell own" x="185" y="198" width="500" height="66"/>
    <rect class="cell no" x="685" y="198" width="499" height="66"/>
    <text class="repo" x="24" y="236">AO Forge</text>
    <text class="text" x="210" y="226">One governed factory run, GoalRun state, plans, gates, retained evidence</text>
    <text class="text" x="710" y="226">Provider execution, final policy authority, observer dashboard storage</text>

    <rect class="cell" x="0" y="264" width="1184" height="66"/>
    <rect class="cell own" x="185" y="264" width="500" height="66"/>
    <rect class="cell no" x="685" y="264" width="499" height="66"/>
    <text class="repo" x="24" y="302">AO Covenant</text>
    <text class="text" x="210" y="292">Policy, trust, approval tickets, side-effect gates, claim vocabulary</text>
    <text class="text" x="710" y="292">Whole-factory scheduling, all evidence storage, operator dashboard UX</text>

    <rect class="cell" x="0" y="330" width="1184" height="66"/>
    <rect class="cell own" x="185" y="330" width="500" height="66"/>
    <rect class="cell no" x="685" y="330" width="499" height="66"/>
    <text class="repo" x="24" y="368">AO2</text>
    <text class="text" x="210" y="358">Governed local execution, adapters, exact-digest approvals, evaluator closure</text>
    <text class="text" x="710" y="358">Cross-repo scheduling, release promotion policy, observer storage</text>

    <rect class="cell" x="0" y="396" width="1184" height="66"/>
    <rect class="cell own" x="185" y="396" width="500" height="66"/>
    <rect class="cell no" x="685" y="396" width="499" height="66"/>
    <text class="repo" x="24" y="434">Control plane</text>
    <text class="text" x="210" y="424">Signed ingest, content-addressed storage, read APIs, dashboards</text>
    <text class="text" x="710" y="424">Approving AO2 runs, executing providers, deciding release readiness</text>

    <rect class="cell" x="0" y="462" width="1184" height="66"/>
    <rect class="cell own" x="185" y="462" width="500" height="66"/>
    <rect class="cell no" x="685" y="462" width="499" height="66"/>
    <text class="repo" x="24" y="500">AO Command</text>
    <text class="text" x="210" y="490">Read-only status, stack summaries, evidence validation, next-action display</text>
    <text class="text" x="710" y="490">Policy replacement, provider execution, release mutation, repository mutation</text>

    <rect class="cell" x="0" y="528" width="1184" height="66"/>
    <rect class="cell own" x="185" y="528" width="500" height="66"/>
    <rect class="cell no" x="685" y="528" width="499" height="66"/>
    <text class="repo" x="24" y="566">Assurance</text>
    <text class="text" x="210" y="556">Arena scores, Crucible probes, Sentinel holds, Promoter dry-run activation</text>
    <text class="text" x="710" y="556">Overriding Covenant policy, bypassing AO2, publishing without promotion gates</text>
  </g>
  <text class="text" x="48" y="770">Rule: no repository writes its own permission slip. Readback surfaces report evidence; they do not approve, execute, mutate, or publish.</text>
</svg>
