<svg xmlns="http://www.w3.org/2000/svg" width="1280" height="700" viewBox="0 0 1280 700" role="img" aria-labelledby="title desc">
  <title id="title">AO authority boundaries</title>
  <desc id="desc">Matrix of what each repository owns and must not own.</desc>
  <defs>
    <style>
      .bg { fill: #f8fafc; }
      .title { font: 700 32px Arial, sans-serif; fill: #111827; }
      .header { fill: #1f2937; }
      .headtext { font: 700 16px Arial, sans-serif; fill: #ffffff; }
      .cell { fill: #ffffff; stroke: #cbd5e1; stroke-width: 1.5; }
      .repo { font: 700 17px Arial, sans-serif; fill: #111827; }
      .text { font: 400 14px Arial, sans-serif; fill: #334155; }
      .own { fill: #e7f6ee; }
      .no { fill: #fff0f0; }
    </style>
  </defs>
  <rect class="bg" width="1280" height="700"/>
  <text class="title" x="56" y="56">Authority boundaries keep the factory auditable</text>
  <rect class="header" x="56" y="100" width="1168" height="48" rx="10"/>
  <text class="headtext" x="90" y="130">Repository</text>
  <text class="headtext" x="285" y="130">Owns</text>
  <text class="headtext" x="770" y="130">Must not own</text>

  <g transform="translate(56,148)">
    <rect class="cell" x="0" y="0" width="1168" height="78"/>
    <rect class="cell own" x="190" y="0" width="485" height="78"/>
    <rect class="cell no" x="675" y="0" width="493" height="78"/>
    <text class="repo" x="30" y="34">AO Command</text>
    <text class="text" x="220" y="28">Read-only status, next actions, evidence validation, release rehearsal summaries</text>
    <text class="text" x="705" y="28">Policy replacement, provider execution, release mutation by default</text>

    <rect class="cell" x="0" y="78" width="1168" height="78"/>
    <rect class="cell own" x="190" y="78" width="485" height="78"/>
    <rect class="cell no" x="675" y="78" width="493" height="78"/>
    <text class="repo" x="30" y="112">AO Foundry</text>
    <text class="text" x="220" y="106">Portfolio queue, active-stack readiness, release trains, overnight loops</text>
    <text class="text" x="705" y="106">Individual governed execution or side-effect approval</text>

    <rect class="cell" x="0" y="156" width="1168" height="78"/>
    <rect class="cell own" x="190" y="156" width="485" height="78"/>
    <rect class="cell no" x="675" y="156" width="493" height="78"/>
    <text class="repo" x="30" y="190">AO Forge</text>
    <text class="text" x="220" y="184">Factory plans, GoalRun state, release gates, readiness scoring</text>
    <text class="text" x="705" y="184">Provider execution, final policy authority, evidence archive UI</text>

    <rect class="cell" x="0" y="234" width="1168" height="78"/>
    <rect class="cell own" x="190" y="234" width="485" height="78"/>
    <rect class="cell no" x="675" y="234" width="493" height="78"/>
    <text class="repo" x="30" y="268">AO Covenant</text>
    <text class="text" x="220" y="262">Contracts, provenance, approval tickets, policy decisions, evidence packs</text>
    <text class="text" x="705" y="262">Whole-factory scheduling, all evidence storage, operator dashboards</text>

    <rect class="cell" x="0" y="312" width="1168" height="78"/>
    <rect class="cell own" x="190" y="312" width="485" height="78"/>
    <rect class="cell no" x="675" y="312" width="493" height="78"/>
    <text class="repo" x="30" y="346">AO2</text>
    <text class="text" x="220" y="340">Governed execution, adapters, exact-digest approvals, evaluator closure</text>
    <text class="text" x="705" y="340">Cross-repo scheduling, release promotion policy, observer storage</text>

    <rect class="cell" x="0" y="390" width="1168" height="78"/>
    <rect class="cell own" x="190" y="390" width="485" height="78"/>
    <rect class="cell no" x="675" y="390" width="493" height="78"/>
    <text class="repo" x="30" y="424">Control plane</text>
    <text class="text" x="220" y="418">Signed ingest, content-addressed storage, authenticated read APIs, dashboards</text>
    <text class="text" x="705" y="418">Approving AO2 runs, executing providers, deciding release readiness</text>
  </g>
</svg>
